<svg xmlns="http://www.w3.org/2000/svg" viewBox="0 0 335 335"><defs><style>.cls-1{fill:#faa125;}.cls-2{fill:#fff;}.cls-3{fill:none;stroke:#000;stroke-miterlimit:10;}</style></defs><title>bot_color</title><g id="Layer_2" data-name="Layer 2"><g id="Layer_1-2" data-name="Layer 1"><path class="cls-1" d="M167.5,315C86.17,315,20,248.83,20,167.5S86.17,20,167.5,20,315,86.17,315,167.5,248.83,315,167.5,315Z"/><path class="cls-1" d="M167.5,40A127.5,127.5,0,1,1,77.34,77.34,126.67,126.67,0,0,1,167.5,40m0-40A167.5,167.5,0,1,0,335,167.5,167.5,167.5,0,0,0,167.5,0Z"/><path class="cls-2" d="M167.5,43.5A124,124,0,1,1,79.82,79.82,123.19,123.19,0,0,1,167.5,43.5m0-12a136,136,0,1,0,136,136,136,136,0,0,0-136-136Z"/><path class="cls-3" d="M285.22,253.85"/><ellipse class="cls-2" cx="106.5" cy="166.5" rx="25" ry="47"/><ellipse class="cls-2" cx="224.5" cy="166.5" rx="25" ry="47"/></g></g></svg>