<?xml version="1.0" encoding="UTF-8"?>
<svg width="35px" height="35px" viewBox="0 0 35 35" version="1.1" xmlns="http://www.w3.org/2000/svg" xmlns:xlink="http://www.w3.org/1999/xlink">
    <!-- Generator: Sketch 46.2 (44496) - http://www.bohemiancoding.com/sketch -->
    <title>dashboard</title>
    <desc>Created with Sketch.</desc>
    <defs></defs>
    <g id="Page-1" stroke="none" stroke-width="1" fill="none" fill-rule="evenodd">
        <g id="Trade-History" transform="translate(-619.000000, -15.000000)" fill-rule="nonzero" fill="#FFFFFF">
            <g id="Group-3" transform="translate(578.000000, 15.000000)">
                <g id="dashboard" transform="translate(41.000000, 0.000000)">
                    <path d="M13.3332117,0 L2.66678828,0 C1.94439783,0 1.3194936,0.316886301 0.791710752,0.950396217 C0.263927907,1.58294295 0,2.33352305 0,3.19994746 L0,12.7998774 C0,13.6664769 0.263927907,14.4166192 0.791710752,15.0496038 C1.31942063,15.6832013 1.94432486,16 2.66678828,16 L13.3332117,16 C14.0556022,16 14.6805064,15.6829386 15.2082892,15.0496038 C15.7360721,14.4166192 16,13.6664769 16,12.7998774 L16,3.19994746 C16,2.33352305 15.7360721,1.58320564 15.2082892,0.950308655 C14.6805064,0.316623615 14.0553833,0 13.3332117,0 Z" id="Shape"></path>
                    <path d="M13.3332117,19 L2.66678828,19 C1.94439783,19 1.3194936,19.3170632 0.791710752,19.9502263 C0.263927907,20.5833894 0,21.3334483 0,22.199965 L0,31.7999475 C0,32.6665517 0.263927907,33.4169608 0.791710752,34.0497737 C1.31942063,34.6831995 1.94432486,35 2.66678828,35 L13.3332117,35 C14.0556022,35 14.6805064,34.6832871 15.2082892,34.0497737 C15.7360721,33.4168733 16,32.6665517 16,31.7999475 L16,22.199965 C16,21.3334483 15.7360721,20.5833894 15.2082892,19.9502263 C14.6805064,19.3165378 14.0553833,19 13.3332117,19 Z" id="Shape"></path>
                    <path d="M34.2081433,0.950391016 C33.6809442,0.316621883 33.0554562,0 32.3332847,0 L21.6666423,0 C20.9445438,0 20.3194206,0.316884567 19.7918567,0.950391016 C19.2640009,1.58293429 19,2.33359784 19,3.20001751 L19,12.7998949 C19,13.6664897 19.2639279,14.4166279 19.7918567,15.049609 C20.3194206,15.683203 20.9445438,16 21.6666423,16 L32.3332847,16 C33.0554562,16 33.6810172,15.6829403 34.2081433,15.049609 C34.7359991,14.4166279 35,13.6664897 35,12.7998949 L35,3.19992995 C35,2.33351028 34.736218,1.58345966 34.2081433,0.950391016 Z" id="Shape"></path>
                    <path d="M32.3332847,19 L21.6666423,19 C20.9445438,19 20.3194206,19.3170632 19.7918567,19.9502263 C19.2640009,20.5833894 19,21.3334483 19,22.199965 L19,31.7999475 C19,32.6665517 19.2639279,33.4169608 19.7918567,34.0497737 C20.3194206,34.6831995 20.9445438,35 21.6666423,35 L32.3332847,35 C33.0554562,35 33.6810172,34.6832871 34.2081433,34.0497737 C34.7359991,33.4168733 35,32.6665517 35,31.7999475 L35,22.199965 C35,21.3334483 34.736291,20.5833894 34.2081433,19.9502263 C33.6809442,19.3165378 33.055967,19 32.3332847,19 Z" id="Shape"></path>
                </g>
            </g>
        </g>
    </g>
</svg>