<?xml version="1.0" encoding="utf-8"?>
<!-- Generator: Adobe Illustrator 21.1.0, SVG Export Plug-In . SVG Version: 6.00 Build 0)  -->
<svg version="1.1" id="Layer_1" xmlns="http://www.w3.org/2000/svg" xmlns:xlink="http://www.w3.org/1999/xlink" x="0px" y="0px"
	 viewBox="0 0 254 56.6" style="enable-background:new 0 0 254 56.6;" xml:space="preserve">
<style type="text/css">
	.st0{fill:#FFFFFF;}
	.st1{fill:#FAA125;}
	.st2{fill:none;stroke:#000000;stroke-miterlimit:10;}
</style>
<title>Asset 3</title>
<g id="Layer_2">
	<g id="Layer_1-2">
		<path class="st0" d="M39.4,9.2l-6.2,7.3c-2.6-3.3-6.4-5.2-10.6-5.5c-6.7,0-11.7,5.3-11.7,12.2s5,12.4,11.7,12.4
			c3.5,0,7.6-1.9,10.6-4.9l6.2,6.6C34.9,41.9,28.3,45,22.1,45C9.4,45,0,35.7,0,23.4C0,11.3,9.7,2.2,22.4,2.2
			C28.8,2.2,34.9,4.8,39.4,9.2z"/>
		<path class="st0" d="M51.4,17.6c2.1-3.8,6.2-6,10.5-5.9v9.4c-6-0.5-10,2.3-10.5,6.8v16.6H41V12.2h10.4V17.6z"/>
		<path class="st0" d="M84.3,47.9c-2.4,5.9-6.5,8.8-12.5,8.8c-3.4,0-6.8-1.1-9.4-3.3l4.3-7.1c1.2,1.1,2.7,1.7,4.3,1.7
			c1.7,0.1,3.3-1,4-2.6l0.8-1.6L62.3,12.2H73l7.9,21.5l7-21.5h10.4L84.3,47.9z"/>
		<path class="st0" d="M134,28.5c0,9.8-5.9,16.4-14.9,16.4c-3.9,0.1-7.5-1.6-9.9-4.7v16H98.8v-44h10.4v4.3c2.3-3,5.9-4.7,9.7-4.6
			C128,11.8,134,18.5,134,28.5z M123.6,28.2c0-4.9-2.9-8.4-7.3-8.4s-7.1,3.5-7.1,8.4s2.9,8.5,7.1,8.5S123.6,33.2,123.6,28.2
			L123.6,28.2z"/>
		<path class="st0" d="M157.9,42.8c-2.6,1.5-5.6,2.2-8.6,2.2c-6.2,0-10.7-3.5-10.7-10.3V20.5H134v-6.8h4.5v-9h10.3v8.9h8.5v6.8h-8.5
			v12.7c0,2.5,1.1,3.6,3,3.5c1.4-0.1,2.7-0.5,4-1.1L157.9,42.8z"/>
		<path class="st0" d="M194.1,28.5c0,9.8-5.9,16.4-14.9,16.4c-3.9,0.1-7.5-1.6-9.9-4.7v4.3h-10.4V0h10.4v16.4c2.3-3,5.9-4.7,9.7-4.6
			C188.1,11.8,194.1,18.5,194.1,28.5z M183.7,28.2c0-4.9-2.9-8.4-7.3-8.4s-7.1,3.5-7.1,8.4s2.9,8.5,7.1,8.5S183.7,33.2,183.7,28.2
			L183.7,28.2z"/>
		<path class="st0" d="M254,42.8c-2.6,1.5-5.6,2.2-8.7,2.2c-6.2,0-10.7-3.5-10.7-10.3V20.5h-4.5v-6.8h4.5v-9h10.3v8.9h8.5v6.8h-8.5
			v12.7c0,2.5,1.1,3.6,3,3.5c1.4-0.1,2.7-0.5,4-1.1L254,42.8z"/>
		<g id="Layer_2-2">
			<g id="Layer_1-2-2">
				<path class="st1" d="M213.1,43.7c-8.6,0-15.6-7-15.6-15.6c0-8.6,7-15.6,15.6-15.6c8.6,0,15.6,7,15.6,15.6
					C228.7,36.7,221.7,43.7,213.1,43.7z"/>
				<path class="st1" d="M213.1,14.6c7.5,0,13.5,6,13.6,13.5c0,7.5-6,13.5-13.5,13.6s-13.5-6-13.6-13.5c0-3.6,1.4-7,3.9-9.6
					C206,16,209.5,14.6,213.1,14.6 M213.1,10.4c-9.8,0-17.8,7.9-17.8,17.8s7.9,17.7,17.8,17.7s17.8-7.9,17.8-17.7
					S222.9,10.4,213.1,10.4z"/>
				<path class="st0" d="M213.1,15c7.3,0,13.1,5.9,13.1,13.1c0,7.3-5.9,13.1-13.1,13.1c-7.3,0-13.1-5.9-13.1-13.1
					c0-3.5,1.4-6.8,3.8-9.3C206.2,16.4,209.6,15,213.1,15 M213.1,13.7c-8,0-14.4,6.5-14.4,14.4s6.5,14.4,14.4,14.4
					s14.4-6.5,14.4-14.4c0,0,0,0,0,0C227.5,20.1,221,13.7,213.1,13.7L213.1,13.7L213.1,13.7z"/>
				<path class="st2" d="M225.5,37.2"/>
				<ellipse class="st0" cx="206.6" cy="28" rx="2.6" ry="5"/>
				<ellipse class="st0" cx="219.1" cy="28" rx="2.6" ry="5"/>
			</g>
		</g>
	</g>
</g>
</svg>
